<svg version="1.1" id="Layer_1" xmlns="http://www.w3.org/2000/svg" xmlns:xlink="http://www.w3.org/1999/xlink" x="0px" y="0px"
	 width="100%" viewBox="0 0 500 500" enable-background="new 0 0 500 500" xml:space="preserve">
<path fill="#000000" opacity="1.000000" stroke="none" 
	d="
M266.000000,501.000000 
	C177.333359,501.000000 89.166710,501.000000 1.000047,501.000000 
	C1.000031,334.333405 1.000031,167.666794 1.000016,1.000137 
	C167.666565,1.000091 334.333130,1.000091 500.999756,1.000046 
	C500.999847,167.666519 500.999847,334.333038 500.999939,500.999786 
	C422.833344,501.000000 344.666656,501.000000 266.000000,501.000000 
M53.992878,294.846313 
	C54.674831,295.110992 55.356781,295.375671 56.717682,296.178955 
	C61.844353,296.427277 66.971024,296.675598 73.009842,297.090912 
	C90.113815,297.125854 107.217804,297.155029 124.321754,297.198029 
	C134.003952,297.222382 140.792358,291.031189 140.908737,281.296936 
	C141.093292,265.859222 140.847397,250.416367 140.944244,234.083145 
	C140.901596,231.047180 140.858963,228.011215 140.968155,224.085938 
	C141.120773,211.518829 137.401123,205.850922 127.450043,203.528839 
	C126.998978,203.501251 126.547913,203.473663 125.311867,203.274612 
	C124.513130,203.323792 123.714401,203.372986 122.069458,203.203781 
	C119.744980,203.279907 117.420494,203.356033 114.371323,203.309082 
	C113.884743,203.350128 113.398155,203.391190 112.015663,203.202728 
	C101.354095,203.277802 90.692535,203.352890 79.276146,203.295303 
	C78.513908,203.336563 77.751678,203.377823 76.178215,203.201797 
	C74.790428,203.277328 73.402641,203.352875 71.147263,203.293854 
	C69.112938,203.355911 67.078621,203.417953 64.253014,203.243423 
	C52.778534,204.374847 47.343185,208.495010 47.118778,217.314499 
	C46.819126,229.091492 47.179230,240.885254 47.171711,253.373871 
	C47.288055,254.062653 47.404400,254.751434 47.170860,255.886398 
	C47.187714,256.259003 47.204567,256.631592 47.117867,257.935394 
	C47.099285,266.084747 46.593014,274.275513 47.280613,282.364838 
	C47.595165,286.065430 50.260349,289.566193 52.189564,293.605652 
	C52.671230,293.878540 53.152897,294.151398 53.992878,294.846313 
M267.960388,251.171448 
	C267.802124,249.790848 267.643860,248.410233 267.326416,246.554153 
	C266.872467,246.081940 266.418518,245.609711 265.982300,244.418365 
	C265.099609,243.059555 264.146423,241.740738 263.348358,240.333908 
	C261.471405,237.025253 258.721771,235.090240 254.889343,235.005005 
	C251.781311,234.935883 248.668442,235.084091 245.351730,234.863495 
	C245.496094,234.850494 245.640457,234.837509 245.784821,234.824509 
	C245.720627,234.919357 245.656433,235.014221 244.915756,235.465698 
	C243.956009,236.234756 242.996262,237.003799 241.105927,237.734070 
	C240.840958,237.572235 240.576004,237.410416 240.571594,236.318024 
	C240.571594,231.073120 240.571594,225.828201 240.571594,220.551666 
	C237.032043,220.551666 234.118515,220.551666 231.646133,220.551666 
	C231.646133,238.218338 231.646133,255.590576 231.381454,273.348022 
	C231.943527,273.626709 232.505600,273.905396 233.788208,274.411377 
	C234.531067,274.334167 235.273926,274.256958 236.659531,274.454163 
	C238.362106,273.899353 240.064682,273.344574 242.535477,272.539429 
	C248.451080,276.449677 254.982346,276.602722 260.756958,272.595581 
	C265.667358,269.188141 269.651215,261.069153 267.960388,251.171448 
M363.768036,274.442688 
	C366.052124,274.442688 368.336243,274.442688 370.054810,274.442688 
	C370.054810,263.904205 370.371460,253.953125 369.941193,244.034424 
	C369.663696,237.636673 365.358856,234.411316 359.176270,233.964844 
	C353.406311,233.548187 349.121704,236.072922 345.399811,240.019485 
	C339.130188,232.280975 332.301575,231.742294 323.541199,238.051147 
	C321.977051,234.150528 320.405518,233.741180 314.055664,235.343521 
	C314.055664,248.356552 314.055664,261.250702 314.055664,274.220459 
	C317.390594,274.220459 320.132751,274.220459 323.001892,274.220459 
	C323.001892,272.147583 323.019470,270.347168 322.998627,268.547211 
	C322.933167,262.888092 322.532166,257.206848 322.922516,251.580078 
	C323.101776,248.996170 324.165863,245.656860 326.029907,244.235916 
	C327.901550,242.809174 331.656097,242.400543 333.857147,243.309479 
	C335.674316,244.059860 337.369293,247.336090 337.485046,249.577438 
	C337.909851,257.802155 337.653412,266.062073 337.653412,274.194946 
	C341.155121,274.194946 343.921661,274.194946 347.373413,274.194946 
	C347.373413,265.265869 347.129181,256.622162 347.470703,248.001678 
	C347.657074,243.298172 351.338745,242.284576 355.388275,242.618988 
	C359.397949,242.950089 361.115326,245.197342 361.037994,249.239151 
	C360.901031,256.397736 360.909241,263.562988 361.083130,270.720001 
	C361.113495,271.970490 362.254211,273.194000 363.768036,274.442688 
M164.972427,274.479492 
	C172.930176,274.472687 172.939804,274.476013 175.492523,267.113861 
	C175.815643,266.181915 175.728180,265.010590 176.271835,264.276825 
	C176.946793,263.365845 178.061081,262.206085 179.019882,262.173828 
	C184.799347,261.979584 190.588638,262.077301 196.199310,262.077301 
	C200.385803,275.655792 200.436417,275.695435 211.056030,273.883087 
	C204.925613,255.972107 198.809006,238.101425 192.698730,220.249252 
	C190.941208,220.249252 189.577621,220.445679 188.290359,220.215424 
	C182.556824,219.189896 180.371368,221.927353 178.745178,227.246262 
	C174.987320,239.537506 170.274368,251.533585 166.201187,263.733643 
	C165.058945,267.154907 164.793976,270.869049 164.972427,274.479492 
M429.339020,267.216003 
	C433.788361,276.822845 432.106628,280.066040 421.842407,281.403259 
	C421.501068,283.923035 421.155731,286.472229 420.812225,289.007874 
	C432.743378,290.814606 436.527710,286.310547 439.501373,278.764008 
	C445.159363,264.405273 450.018250,249.731689 455.304749,234.920441 
	C451.783112,234.920441 448.539642,234.920441 445.231415,234.920441 
	C442.333405,243.625153 439.492126,252.159454 436.538025,261.032715 
	C433.497284,251.979431 430.624146,243.425049 427.805664,235.033447 
	C424.364105,235.033447 421.128540,235.033447 417.325592,235.033447 
	C421.408997,245.824585 425.312073,256.139221 429.339020,267.216003 
M272.500916,240.782394 
	C272.501251,246.939407 272.393402,253.098785 272.527191,259.252899 
	C272.730347,268.596527 275.666138,273.829865 282.579529,274.675385 
	C287.181366,275.238190 292.050049,273.619354 297.227509,272.919037 
	C298.229858,275.083313 298.577515,275.165436 306.402618,274.049042 
	C306.402618,260.995789 306.402618,247.976349 306.402618,234.934845 
	C302.992096,234.934845 300.208679,234.934845 297.069458,234.934845 
	C297.069458,242.604172 297.248535,250.062378 297.016052,257.507721 
	C296.808624,264.151093 294.165497,266.381409 288.172485,266.010254 
	C282.667206,265.669342 281.980835,261.656555 281.855560,257.608337 
	C281.625122,250.160721 281.789795,242.700867 281.789795,235.060364 
	C278.483429,235.060364 275.597748,235.060364 272.495178,235.060364 
	C272.495178,236.894928 272.495178,238.378159 272.500916,240.782394 
M396.865631,234.703293 
	C395.292969,234.813934 393.720337,234.924561 392.257568,235.027466 
	C392.257568,237.906342 392.257568,240.342636 392.257568,242.997498 
	C394.219421,243.096695 395.966675,243.185043 398.027618,243.289246 
	C398.027618,253.709290 398.027618,263.802826 398.027618,274.020508 
	C401.234283,274.020508 404.095215,274.020508 407.378845,274.020508 
	C407.378845,263.567810 407.378845,253.483505 407.378845,243.317932 
	C409.905243,243.169571 412.009125,243.046021 414.414703,242.904755 
	C414.704834,240.122482 414.971802,237.562378 415.244537,234.947037 
	C412.262787,234.768250 409.841858,234.623093 407.400940,234.476746 
	C406.950623,229.009171 409.353729,226.733124 414.453339,227.009644 
	C414.899841,224.780914 415.309570,222.735718 415.709381,220.739899 
	C405.050598,216.376892 398.321747,220.746750 398.056580,231.924606 
	C398.037170,232.742493 397.842499,233.556198 396.865631,234.703293 
M224.270966,240.503204 
	C224.270966,233.896774 224.270966,227.290329 224.270966,220.492355 
	C220.880096,220.492355 217.981110,220.492355 214.936005,220.492355 
	C214.936005,238.560684 214.936005,256.390167 214.936005,274.158752 
	C218.186630,274.158752 221.096634,274.158752 224.271957,274.158752 
	C224.271957,263.069275 224.271957,252.285706 224.270966,240.503204 
M377.523163,265.927521 
	C377.747131,268.663391 377.971130,271.399292 378.194885,274.132080 
	C381.275421,274.132080 384.036346,274.132080 386.923676,274.132080 
	C386.923676,260.959045 386.923676,248.047867 386.923676,234.984253 
	C383.660461,234.984253 380.566467,234.984253 377.229736,234.984253 
	C377.229736,245.170166 377.229736,255.109497 377.523163,265.927521 
M386.372070,227.659546 
	C386.189056,225.382645 386.572144,222.809204 385.596863,220.947266 
	C385.067047,219.935760 381.351257,219.240021 380.606934,219.968872 
	C378.935211,221.605850 377.039185,224.422485 377.375275,226.393890 
	C377.984222,229.965683 381.579041,230.461578 386.372070,227.659546 
z"/>
<path fill="#EAE5EA" opacity="1.000000" stroke="none" 
	d="
M363.325073,274.436340 
	C362.254211,273.194000 361.113495,271.970490 361.083130,270.720001 
	C360.909241,263.562988 360.901031,256.397736 361.037994,249.239151 
	C361.115326,245.197342 359.397949,242.950089 355.388275,242.618988 
	C351.338745,242.284576 347.657074,243.298172 347.470703,248.001678 
	C347.129181,256.622162 347.373413,265.265869 347.373413,274.194946 
	C343.921661,274.194946 341.155121,274.194946 337.653412,274.194946 
	C337.653412,266.062073 337.909851,257.802155 337.485046,249.577438 
	C337.369293,247.336090 335.674316,244.059860 333.857147,243.309479 
	C331.656097,242.400543 327.901550,242.809174 326.029907,244.235916 
	C324.165863,245.656860 323.101776,248.996170 322.922516,251.580078 
	C322.532166,257.206848 322.933167,262.888092 322.998627,268.547211 
	C323.019470,270.347168 323.001892,272.147583 323.001892,274.220459 
	C320.132751,274.220459 317.390594,274.220459 314.055664,274.220459 
	C314.055664,261.250702 314.055664,248.356552 314.055664,235.343521 
	C320.405518,233.741180 321.977051,234.150528 323.541199,238.051147 
	C332.301575,231.742294 339.130188,232.280975 345.399811,240.019485 
	C349.121704,236.072922 353.406311,233.548187 359.176270,233.964844 
	C365.358856,234.411316 369.663696,237.636673 369.941193,244.034424 
	C370.371460,253.953125 370.054810,263.904205 370.054810,274.442688 
	C368.336243,274.442688 366.052124,274.442688 363.325073,274.436340 
z"/>
<path fill="#EAE5EA" opacity="1.000000" stroke="none" 
	d="
M164.549500,274.464172 
	C164.793976,270.869049 165.058945,267.154907 166.201187,263.733643 
	C170.274368,251.533585 174.987320,239.537506 178.745178,227.246262 
	C180.371368,221.927353 182.556824,219.189896 188.290359,220.215424 
	C189.577621,220.445679 190.941208,220.249252 192.698730,220.249252 
	C198.809006,238.101425 204.925613,255.972107 211.056030,273.883087 
	C200.436417,275.695435 200.385803,275.655792 196.199310,262.077301 
	C190.588638,262.077301 184.799347,261.979584 179.019882,262.173828 
	C178.061081,262.206085 176.946793,263.365845 176.271835,264.276825 
	C175.728180,265.010590 175.815643,266.181915 175.492523,267.113861 
	C172.939804,274.476013 172.930176,274.472687 164.549500,274.464172 
M192.757141,252.634308 
	C190.912247,246.377472 189.067368,240.120636 187.222473,233.863800 
	C186.889572,233.966110 186.556686,234.068405 186.223785,234.170715 
	C184.190140,240.336639 182.156509,246.502579 180.047760,252.896210 
	C184.299927,252.896210 188.109055,252.896210 192.757141,252.634308 
z"/>
<path fill="#EE5A44" opacity="1.000000" stroke="none" 
	d="
M140.783615,234.975677 
	C140.847397,250.416367 141.093292,265.859222 140.908737,281.296936 
	C140.792358,291.031189 134.003952,297.222382 124.321754,297.198029 
	C107.217804,297.155029 90.113815,297.125854 72.553619,296.787048 
	C72.097397,296.483185 72.106979,296.042542 72.563599,296.040283 
	C79.802193,296.022766 86.584229,296.019012 93.366081,295.981110 
	C94.514427,295.974701 95.977318,296.246582 96.758484,295.666992 
	C101.709152,291.993805 106.508942,288.117279 111.428802,284.252594 
	C112.966446,284.677368 114.643654,285.140686 116.256393,285.623901 
	C116.191925,285.643738 116.324806,285.666962 116.361458,285.940247 
	C116.711372,286.363190 117.024643,286.512878 117.355293,286.704712 
	C117.372681,286.746857 117.412369,286.664764 117.350449,286.828186 
	C117.506050,287.040985 117.723564,287.090393 118.367310,287.200592 
	C120.480118,287.261383 122.166679,287.261383 124.903358,287.261383 
	C123.109108,285.099365 122.022873,283.790466 120.963287,282.140747 
	C121.066208,277.964264 124.119370,278.540558 126.641098,278.155151 
	C126.799789,278.216248 126.920059,278.534393 126.994385,278.751587 
	C127.526924,279.342316 127.985130,279.715790 128.602203,280.141235 
	C128.761078,280.193237 128.893829,280.500092 128.933319,280.769623 
	C129.664368,281.225464 130.355927,281.411774 131.078674,281.092773 
	C131.167603,273.697906 131.225327,266.808350 131.399445,259.836395 
	C131.657928,259.455231 131.574142,259.227997 131.187103,258.614563 
	C131.165665,254.763260 131.221619,251.369644 131.400330,247.880859 
	C131.680267,247.465286 131.598755,247.210007 131.223328,246.561920 
	C131.219299,242.428177 131.270462,238.752396 131.686707,235.058960 
	C137.196030,233.639557 138.415726,229.140350 140.013412,224.961792 
	C140.006470,224.978638 140.042877,224.978439 140.018860,225.423279 
	C140.257751,228.903976 140.520691,231.939835 140.783615,234.975677 
z"/>
<path fill="#EAE5EA" opacity="1.000000" stroke="none" 
	d="
M429.277100,266.834961 
	C425.312073,256.139221 421.408997,245.824585 417.325592,235.033447 
	C421.128540,235.033447 424.364105,235.033447 427.805664,235.033447 
	C430.624146,243.425049 433.497284,251.979431 436.538025,261.032715 
	C439.492126,252.159454 442.333405,243.625153 445.231415,234.920441 
	C448.539642,234.920441 451.783112,234.920441 455.304749,234.920441 
	C450.018250,249.731689 445.159363,264.405273 439.501373,278.764008 
	C436.527710,286.310547 432.743378,290.814606 420.812225,289.007874 
	C421.155731,286.472229 421.501068,283.923035 421.842407,281.403259 
	C432.106628,280.066040 433.788361,276.822845 429.277100,266.834961 
z"/>
<path fill="#EAE5EA" opacity="1.000000" stroke="none" 
	d="
M272.498047,240.321899 
	C272.495178,238.378159 272.495178,236.894928 272.495178,235.060364 
	C275.597748,235.060364 278.483429,235.060364 281.789795,235.060364 
	C281.789795,242.700867 281.625122,250.160721 281.855560,257.608337 
	C281.980835,261.656555 282.667206,265.669342 288.172485,266.010254 
	C294.165497,266.381409 296.808624,264.151093 297.016052,257.507721 
	C297.248535,250.062378 297.069458,242.604172 297.069458,234.934845 
	C300.208679,234.934845 302.992096,234.934845 306.402618,234.934845 
	C306.402618,247.976349 306.402618,260.995789 306.402618,274.049042 
	C298.577515,275.165436 298.229858,275.083313 297.227509,272.919037 
	C292.050049,273.619354 287.181366,275.238190 282.579529,274.675385 
	C275.666138,273.829865 272.730347,268.596527 272.527191,259.252899 
	C272.393402,253.098785 272.501251,246.939407 272.498047,240.321899 
z"/>
<path fill="#BE2C6E" opacity="1.000000" stroke="none" 
	d="
M51.859467,293.157593 
	C50.260349,289.566193 47.595165,286.065430 47.280613,282.364838 
	C46.593014,274.275513 47.099285,266.084747 47.345413,257.243591 
	C47.555553,256.181274 47.538147,255.810745 47.520744,255.440216 
	C47.404400,254.751434 47.288055,254.062653 47.715179,253.113068 
	C54.969376,253.114151 54.970535,253.114151 54.994946,246.248535 
	C55.000717,244.625305 54.995804,243.002029 54.995804,241.378784 
	C55.962418,249.018387 55.888954,256.634705 56.052711,264.245880 
	C56.073868,265.229034 57.322739,266.185730 58.152214,266.845276 
	C62.537224,261.715393 66.815109,256.931122 70.996956,252.064331 
	C75.322769,247.029968 79.689606,246.716888 84.499168,251.378952 
	C85.891304,252.728394 86.958237,254.413345 87.792908,255.962296 
	C86.253494,256.531647 84.703728,256.778168 83.999168,257.682892 
	C78.218483,265.105957 72.477272,272.566467 66.972328,280.194763 
	C64.107651,284.164429 61.145645,286.162018 56.099907,283.925385 
	C54.738777,283.322021 52.147625,284.168335 50.848698,285.235168 
	C50.039417,285.899872 50.385189,288.256134 50.608727,289.795715 
	C50.765263,290.873871 51.591042,291.854858 52.052948,292.948486 
	C51.987965,293.017761 51.859467,293.157593 51.859467,293.157593 
z"/>
<path fill="#EEE9EE" opacity="1.000000" stroke="none" 
	d="
M245.557709,235.135895 
	C248.668442,235.084091 251.781311,234.935883 254.889343,235.005005 
	C258.721771,235.090240 261.471405,237.025253 263.348358,240.333908 
	C264.146423,241.740738 265.099609,243.059555 265.983521,245.046814 
	C266.485016,246.126724 266.985321,246.578171 267.485596,247.029633 
	C267.643860,248.410233 267.802124,249.790848 267.582825,251.644974 
	C263.365967,254.140015 263.699341,257.215149 265.866730,261.246246 
	C262.736298,260.374023 260.516846,259.755615 258.327637,258.729675 
	C258.596497,257.550140 258.835175,256.778137 259.372009,255.999237 
	C260.190948,255.778519 260.711700,255.564743 261.232452,255.350983 
	C260.511230,254.898941 259.790039,254.446884 258.984222,253.611862 
	C258.603149,252.146301 258.336884,251.054352 258.004913,249.982758 
	C256.490234,245.093277 252.483246,241.423645 248.432312,242.123779 
	C244.261810,242.844589 240.974823,245.195282 240.131439,250.146423 
	C239.545380,253.222855 238.784058,256.207458 239.160385,259.041016 
	C239.782547,263.725677 240.776413,268.157227 234.459869,269.224548 
	C235.060150,271.135101 235.538467,272.657410 236.016785,274.179749 
	C235.273926,274.256958 234.531067,274.334167 233.328461,274.070770 
	C232.461182,273.474396 232.053650,273.218597 231.646133,272.962830 
	C231.646133,255.590576 231.646133,238.218338 231.646133,220.551666 
	C234.118515,220.551666 237.032043,220.551666 240.571594,220.551666 
	C240.571594,225.828201 240.571594,231.073120 240.344025,236.988052 
	C240.322830,238.017395 240.529221,238.376694 240.735611,238.735992 
	C241.169250,238.414948 241.602890,238.093918 242.036530,237.772858 
	C242.996262,237.003799 243.956009,236.234756 245.238876,235.270554 
	C245.561996,235.075409 245.557709,235.135895 245.557709,235.135895 
z"/>
<path fill="#EEE9EE" opacity="1.000000" stroke="none" 
	d="
M397.297485,234.537567 
	C397.842499,233.556198 398.037170,232.742493 398.056580,231.924606 
	C398.321747,220.746750 405.050598,216.376892 415.709381,220.739899 
	C415.309570,222.735718 414.899841,224.780914 414.453339,227.009644 
	C409.353729,226.733124 406.950623,229.009171 407.400940,234.476746 
	C409.841858,234.623093 412.262787,234.768250 415.244537,234.947037 
	C414.971802,237.562378 414.704834,240.122482 414.414703,242.904755 
	C412.009125,243.046021 409.905243,243.169571 407.378845,243.317932 
	C407.378845,253.483505 407.378845,263.567810 407.378845,274.020508 
	C404.095215,274.020508 401.234283,274.020508 398.027618,274.020508 
	C398.027618,263.802826 398.027618,253.709290 398.027618,243.289246 
	C395.966675,243.185043 394.219421,243.096695 392.257568,242.997498 
	C392.257568,240.342636 392.257568,237.906342 392.257568,235.027466 
	C393.720337,234.924561 395.292969,234.813934 397.297485,234.537567 
z"/>
<path fill="#8D2578" opacity="1.000000" stroke="none" 
	d="
M58.002907,267.154663 
	C57.322739,266.185730 56.073868,265.229034 56.052711,264.245880 
	C55.888954,256.634705 55.962418,249.018387 54.995804,241.378784 
	C54.995804,243.002029 55.000717,244.625305 54.994946,246.248535 
	C54.970535,253.114151 54.969376,253.114151 47.757309,252.762024 
	C47.179230,240.885254 46.819126,229.091492 47.118778,217.314499 
	C47.343185,208.495010 52.778534,204.374847 64.544441,203.635925 
	C70.098381,204.550171 75.360886,205.071945 81.055458,205.636566 
	C79.973022,207.778854 79.173691,209.360840 78.306824,211.076508 
	C79.257034,211.743469 80.158684,212.376343 80.592331,213.101318 
	C75.303452,213.201294 70.482452,213.192856 65.661682,213.221100 
	C59.206543,213.258911 56.701328,215.769073 56.700039,222.277649 
	C56.697403,235.577530 56.690311,248.877808 56.808739,262.176819 
	C56.823544,263.839508 57.586567,265.495544 58.002907,267.154663 
z"/>
<path fill="#BE2C6E" opacity="1.000000" stroke="none" 
	d="
M81.060326,213.009216 
	C80.158684,212.376343 79.257034,211.743469 78.306824,211.076508 
	C79.173691,209.360840 79.973022,207.778854 81.055458,205.636566 
	C75.360886,205.071945 70.098381,204.550171 64.940079,203.754211 
	C67.078621,203.417953 69.112938,203.355911 71.851822,203.549347 
	C74.034065,203.676254 75.511749,203.547668 76.989441,203.419067 
	C77.751678,203.377823 78.513908,203.336563 80.005905,203.565231 
	C91.460968,203.700851 102.186272,203.566528 112.911575,203.432220 
	C113.398155,203.391190 113.884743,203.350128 115.046806,203.552277 
	C118.120079,203.671036 120.517876,203.546600 122.915665,203.422180 
	C123.714401,203.372986 124.513130,203.323792 125.873383,203.506836 
	C126.864616,203.794388 127.294350,203.849701 127.724075,203.905014 
	C137.401123,205.850922 141.120773,211.518829 140.698883,224.532990 
	C140.429596,224.980042 140.042877,224.978439 140.042877,224.978439 
	C140.042877,224.978439 140.006470,224.978638 140.021088,224.533691 
	C139.489944,220.918518 138.944168,217.748291 138.267319,213.816620 
	C135.050552,216.118393 133.061539,217.541656 130.821045,218.734680 
	C128.826309,214.468933 125.687248,213.146744 121.405891,213.170258 
	C107.958069,213.244095 94.508942,213.080719 81.060326,213.009216 
z"/>
<path fill="#EEE9EE" opacity="1.000000" stroke="none" 
	d="
M224.271454,241.002670 
	C224.271957,252.285706 224.271957,263.069275 224.271957,274.158752 
	C221.096634,274.158752 218.186630,274.158752 214.936005,274.158752 
	C214.936005,256.390167 214.936005,238.560684 214.936005,220.492355 
	C217.981110,220.492355 220.880096,220.492355 224.270966,220.492355 
	C224.270966,227.290329 224.270966,233.896774 224.271454,241.002670 
z"/>
<path fill="#EEE9EE" opacity="1.000000" stroke="none" 
	d="
M377.376465,265.488159 
	C377.229736,255.109497 377.229736,245.170166 377.229736,234.984253 
	C380.566467,234.984253 383.660461,234.984253 386.923676,234.984253 
	C386.923676,248.047867 386.923676,260.959045 386.923676,274.132080 
	C384.036346,274.132080 381.275421,274.132080 378.194885,274.132080 
	C377.971130,271.399292 377.747131,268.663391 377.376465,265.488159 
z"/>
<path fill="#D9385C" opacity="1.000000" stroke="none" 
	d="
M72.106979,296.042542 
	C72.106979,296.042542 72.097397,296.483185 72.097549,296.703552 
	C66.971024,296.675598 61.844353,296.427277 56.372925,295.636505 
	C56.010784,294.730194 55.993401,294.366302 56.321762,293.939423 
	C61.609009,291.912872 66.583290,290.026367 71.474464,287.944580 
	C73.213028,287.204620 75.249870,286.354218 76.288689,284.926941 
	C80.059525,279.746033 83.743004,274.457611 86.911438,268.897461 
	C89.054886,265.136017 91.028351,262.193512 96.173370,264.089661 
	C96.632210,264.492981 96.838402,264.788635 97.122910,265.265930 
	C97.350563,265.675964 97.551193,265.842621 98.052704,266.172394 
	C99.589081,267.855896 100.875854,269.314606 101.776474,270.800232 
	C98.163391,269.470245 95.632507,269.951355 94.031845,273.401917 
	C93.480148,274.591187 92.562828,275.608673 91.831802,276.717346 
	C87.898590,282.682434 85.090492,289.684174 75.749237,289.279144 
	C72.966141,289.158508 70.340324,292.150574 72.106979,296.042542 
z"/>
<path fill="#E2DCE3" opacity="1.000000" stroke="none" 
	d="
M258.297394,259.137207 
	C260.516846,259.755615 262.736298,260.374023 265.866730,261.246246 
	C263.699341,257.215149 263.365967,254.140015 267.557343,252.070343 
	C269.651215,261.069153 265.667358,269.188141 260.756958,272.595581 
	C254.982346,276.602722 248.451080,276.449677 242.535477,272.539429 
	C240.064682,273.344574 238.362106,273.899353 236.338165,274.316956 
	C235.538467,272.657410 235.060150,271.135101 234.459869,269.224548 
	C240.776413,268.157227 239.782547,263.725677 239.160385,259.041016 
	C238.784058,256.207458 239.545380,253.222855 240.216721,250.600189 
	C240.656158,253.552170 240.508987,256.223846 240.728043,258.865112 
	C241.149078,263.942108 245.605087,267.755249 250.165405,266.920349 
	C254.500793,266.126648 257.021149,263.231720 258.297394,259.137207 
z"/>
<path fill="#EAE5EA" opacity="1.000000" stroke="none" 
	d="
M386.201752,227.968384 
	C381.579041,230.461578 377.984222,229.965683 377.375275,226.393890 
	C377.039185,224.422485 378.935211,221.605850 380.606934,219.968872 
	C381.351257,219.240021 385.067047,219.935760 385.596863,220.947266 
	C386.572144,222.809204 386.189056,225.382645 386.201752,227.968384 
z"/>
<path fill="#8D2578" opacity="1.000000" stroke="none" 
	d="
M112.463623,203.317474 
	C102.186272,203.566528 91.460968,203.700851 80.383316,203.631561 
	C90.692535,203.352890 101.354095,203.277802 112.463623,203.317474 
z"/>
<path fill="#D9385C" opacity="1.000000" stroke="none" 
	d="
M140.018860,225.423279 
	C140.042877,224.978439 140.429596,224.980042 140.622955,224.977646 
	C140.858963,228.011215 140.901596,231.047180 140.863922,234.529419 
	C140.520691,231.939835 140.257751,228.903976 140.018860,225.423279 
z"/>
<path fill="#8D2578" opacity="1.000000" stroke="none" 
	d="
M122.492561,203.312973 
	C120.517876,203.546600 118.120079,203.671036 115.409149,203.613800 
	C117.420494,203.356033 119.744980,203.279907 122.492561,203.312973 
z"/>
<path fill="#8D2578" opacity="1.000000" stroke="none" 
	d="
M76.583832,203.310425 
	C75.511749,203.547668 74.034065,203.676254 72.285614,203.616638 
	C73.402641,203.352875 74.790428,203.277328 76.583832,203.310425 
z"/>
<path fill="#E2DCE3" opacity="1.000000" stroke="none" 
	d="
M241.571228,237.753479 
	C241.602890,238.093918 241.169250,238.414948 240.735611,238.735992 
	C240.529221,238.376694 240.322830,238.017395 240.213745,237.453339 
	C240.576004,237.410416 240.840958,237.572235 241.571228,237.753479 
z"/>
<path fill="#E2DCE3" opacity="1.000000" stroke="none" 
	d="
M267.406006,246.791885 
	C266.985321,246.578171 266.485016,246.126724 265.974640,245.406387 
	C266.418518,245.609711 266.872467,246.081940 267.406006,246.791885 
z"/>
<path fill="#E2DCE3" opacity="1.000000" stroke="none" 
	d="
M231.513794,273.155426 
	C232.053650,273.218597 232.461182,273.474396 232.968201,273.957123 
	C232.505600,273.905396 231.943527,273.626709 231.513794,273.155426 
z"/>
<path fill="#BE2C6E" opacity="1.000000" stroke="none" 
	d="
M55.976017,294.002441 
	C55.993401,294.366302 56.010784,294.730194 56.033451,295.367188 
	C55.356781,295.375671 54.674831,295.110992 53.916306,294.513824 
	C53.839733,294.181335 54.042606,293.936523 54.364426,293.955994 
	C55.116173,293.984467 55.546093,293.993469 55.976017,294.002441 
z"/>
<path fill="#8D2578" opacity="1.000000" stroke="none" 
	d="
M127.587059,203.716919 
	C127.294350,203.849701 126.864616,203.794388 126.265869,203.592575 
	C126.547913,203.473663 126.998978,203.501251 127.587059,203.716919 
z"/>
<path fill="#BE2C6E" opacity="1.000000" stroke="none" 
	d="
M53.737144,294.302795 
	C53.152897,294.151398 52.671230,293.878540 52.024513,293.381622 
	C51.859467,293.157593 51.987965,293.017761 52.330029,293.009399 
	C53.128929,293.312897 53.585766,293.624725 54.042603,293.936523 
	C54.042606,293.936523 53.839733,294.181335 53.737144,294.302795 
z"/>
<path fill="#8D2578" opacity="1.000000" stroke="none" 
	d="
M47.345802,255.663300 
	C47.538147,255.810745 47.555553,256.181274 47.397190,256.777985 
	C47.204567,256.631592 47.187714,256.259003 47.345802,255.663300 
z"/>
<path fill="#E2DCE3" opacity="1.000000" stroke="none" 
	d="
M245.454712,234.999695 
	C245.557709,235.135895 245.561996,235.075409 245.577118,235.092239 
	C245.656433,235.014221 245.720627,234.919357 245.784821,234.824509 
	C245.640457,234.837509 245.496094,234.850494 245.454712,234.999695 
z"/>
<path fill="#040002" opacity="1.000000" stroke="none" 
	d="
M192.337677,252.765259 
	C188.109055,252.896210 184.299927,252.896210 180.047760,252.896210 
	C182.156509,246.502579 184.190140,240.336639 186.223785,234.170715 
	C186.556686,234.068405 186.889572,233.966110 187.222473,233.863800 
	C189.067368,240.120636 190.912247,246.377472 192.337677,252.765259 
z"/>
<path fill="#040002" opacity="1.000000" stroke="none" 
	d="
M97.044594,265.084259 
	C96.838402,264.788635 96.632210,264.492981 96.078415,263.774475 
	C93.211952,260.882599 90.693092,258.413544 88.174240,255.944504 
	C86.958237,254.413345 85.891304,252.728394 84.499168,251.378952 
	C79.689606,246.716888 75.322769,247.029968 70.996956,252.064331 
	C66.815109,256.931122 62.537224,261.715393 58.152218,266.845276 
	C57.586567,265.495544 56.823544,263.839508 56.808739,262.176819 
	C56.690311,248.877808 56.697403,235.577530 56.700039,222.277649 
	C56.701328,215.769073 59.206543,213.258911 65.661682,213.221100 
	C70.482452,213.192856 75.303452,213.201294 80.592331,213.101318 
	C94.508942,213.080719 107.958069,213.244095 121.405891,213.170258 
	C125.687248,213.146744 128.826309,214.468933 130.830170,219.084930 
	C131.149460,220.127609 131.208115,220.589813 131.203888,221.274994 
	C131.141022,221.497971 131.260681,221.945572 131.194305,222.408356 
	C131.192520,226.939636 131.257080,231.008118 131.321640,235.076599 
	C131.270462,238.752396 131.219299,242.428177 131.150238,246.800842 
	C131.132339,247.497696 131.277573,247.976044 131.277573,247.976044 
	C131.221619,251.369644 131.165665,254.763260 131.124969,258.827271 
	C131.140213,259.497681 131.283066,259.918823 131.283051,259.918823 
	C131.225327,266.808350 131.167603,273.697906 130.775848,281.032532 
	C129.925827,281.151825 129.409821,280.825958 128.893829,280.500092 
	C128.893829,280.500092 128.761078,280.193237 128.537720,279.920044 
	C127.849586,279.276062 127.384827,278.905212 126.920059,278.534393 
	C126.920059,278.534393 126.799789,278.216248 126.537285,277.881592 
	C125.293297,276.592560 124.311813,275.638184 123.269981,274.448547 
	C123.078835,273.900726 122.861343,273.669830 122.360458,273.241394 
	C118.573868,269.096313 114.946518,265.264252 111.410530,261.349670 
	C109.744720,259.505493 107.737404,258.304413 106.156715,260.739441 
	C105.325211,262.020355 105.335052,264.918671 106.247620,266.070221 
	C109.715248,270.446045 113.705963,274.407349 117.675995,278.774292 
	C118.879448,280.177155 119.908043,281.329376 120.936630,282.481567 
	C122.022873,283.790466 123.109108,285.099365 124.903358,287.261383 
	C122.166679,287.261383 120.480118,287.261383 118.282379,287.029694 
	C117.771210,286.798004 117.412369,286.664764 117.412369,286.664764 
	C117.412369,286.664764 117.372681,286.746857 117.267334,286.468201 
	C116.882927,286.015350 116.603867,285.841156 116.324806,285.666962 
	C116.324806,285.666962 116.191925,285.643738 116.120720,285.330872 
	C112.125191,280.977386 108.200874,276.936737 104.177025,272.585510 
	C103.421265,271.780914 102.765038,271.286926 102.128464,270.808228 
	C102.148109,270.823547 102.162636,270.773315 102.162636,270.773315 
	C100.875854,269.314606 99.589081,267.855896 98.038330,265.953400 
	C97.612007,265.229034 97.368752,265.087250 97.044594,265.084259 
M97.138107,252.377762 
	C97.379219,252.468719 97.628197,252.524673 98.607712,252.925461 
	C105.129547,254.635300 110.742226,252.655228 114.257645,247.404388 
	C117.794960,242.120834 117.368065,236.629883 112.733910,230.363129 
	C111.515549,229.514847 110.360008,228.553085 109.067993,227.837860 
	C103.339638,224.666794 96.230240,225.934860 92.394066,230.739990 
	C87.842728,236.440887 88.044518,243.891891 93.077133,249.590851 
	C93.374542,249.738113 93.671944,249.885361 94.288734,250.484055 
	C94.764824,250.745193 95.240906,251.006317 95.811195,251.271530 
	C95.811195,251.271530 95.745705,251.203705 95.942940,251.737244 
	C96.275536,251.867615 96.608131,251.997986 96.958221,252.039261 
	C96.958221,252.039261 96.882217,252.088928 97.138107,252.377762 
z"/>
<path fill="#E53B50" opacity="1.000000" stroke="none" 
	d="
M104.276558,272.896088 
	C108.200874,276.936737 112.125191,280.977386 116.185181,285.311035 
	C114.643654,285.140686 112.966446,284.677368 111.428802,284.252594 
	C106.508942,288.117279 101.709152,291.993805 96.758484,295.666992 
	C95.977318,296.246582 94.514427,295.974701 93.366081,295.981110 
	C86.584229,296.019012 79.802193,296.022766 72.563599,296.040283 
	C70.340324,292.150574 72.966141,289.158508 75.749237,289.279144 
	C85.090492,289.684174 87.898590,282.682434 91.831802,276.717346 
	C92.562828,275.608673 93.480148,274.591187 94.031845,273.401917 
	C95.632507,269.951355 98.163391,269.470245 101.776474,270.800232 
	C102.162636,270.773315 102.148109,270.823547 102.213898,271.123688 
	C102.945305,271.914581 103.610931,272.405334 104.276558,272.896088 
z"/>
<path fill="#D9385C" opacity="1.000000" stroke="none" 
	d="
M131.686707,235.058960 
	C131.257080,231.008118 131.192520,226.939636 131.313110,222.321381 
	C131.653290,221.469513 131.576126,221.229645 131.266754,221.052032 
	C131.208115,220.589813 131.149460,220.127609 131.081665,219.315155 
	C133.061539,217.541656 135.050552,216.118393 138.267319,213.816620 
	C138.944168,217.748291 139.489944,220.918518 140.028030,224.516846 
	C138.415726,229.140350 137.196030,233.639557 131.686707,235.058960 
z"/>
<path fill="#E53B50" opacity="1.000000" stroke="none" 
	d="
M123.330322,274.683807 
	C124.311813,275.638184 125.293297,276.592560 126.378586,277.820496 
	C124.119370,278.540558 121.066208,277.964264 120.963287,282.140747 
	C119.908043,281.329376 118.879448,280.177155 117.806526,278.643311 
	C117.762192,278.261627 118.011513,277.988495 118.376755,277.998413 
	C120.145836,277.015167 121.549683,276.022003 123.048004,274.942902 
	C123.142479,274.856934 123.330322,274.683807 123.330322,274.683807 
z"/>
<path fill="#E53B50" opacity="1.000000" stroke="none" 
	d="
M128.933319,280.769623 
	C129.409821,280.825958 129.925827,281.151825 130.744659,281.537872 
	C130.355927,281.411774 129.664368,281.225464 128.933319,280.769623 
z"/>
<path fill="#E53B50" opacity="1.000000" stroke="none" 
	d="
M126.994385,278.751587 
	C127.384827,278.905212 127.849586,279.276062 128.378845,279.868073 
	C127.985130,279.715790 127.526924,279.342316 126.994385,278.751587 
z"/>
<path fill="#E53B50" opacity="1.000000" stroke="none" 
	d="
M116.361458,285.940247 
	C116.603867,285.841156 116.882927,286.015350 117.249947,286.426056 
	C117.024643,286.512878 116.711372,286.363190 116.361458,285.940247 
z"/>
<path fill="#E53B50" opacity="1.000000" stroke="none" 
	d="
M117.350449,286.828186 
	C117.412369,286.664764 117.771210,286.798004 117.856140,286.968903 
	C117.723564,287.090393 117.506050,287.040985 117.350449,286.828186 
z"/>
<path fill="#D9385C" opacity="1.000000" stroke="none" 
	d="
M131.399460,259.836395 
	C131.283066,259.918823 131.140213,259.497681 131.202362,259.284973 
	C131.574142,259.227997 131.657928,259.455231 131.399460,259.836395 
z"/>
<path fill="#D9385C" opacity="1.000000" stroke="none" 
	d="
M131.400330,247.880859 
	C131.277573,247.976044 131.132339,247.497696 131.205444,247.258774 
	C131.598755,247.210007 131.680267,247.465286 131.400330,247.880859 
z"/>
<path fill="#D02B60" opacity="1.000000" stroke="none" 
	d="
M87.792900,255.962296 
	C90.693092,258.413544 93.211952,260.882599 95.825760,263.666809 
	C91.028351,262.193512 89.054886,265.136017 86.911438,268.897461 
	C83.743004,274.457611 80.059525,279.746033 76.288689,284.926941 
	C75.249870,286.354218 73.213028,287.204620 71.474464,287.944580 
	C66.583290,290.026367 61.609009,291.912872 56.321762,293.939453 
	C55.546093,293.993469 55.116173,293.984467 54.364426,293.955994 
	C53.585766,293.624725 53.128929,293.312897 52.395012,292.940155 
	C51.591042,291.854858 50.765263,290.873871 50.608727,289.795715 
	C50.385189,288.256134 50.039417,285.899872 50.848698,285.235168 
	C52.147625,284.168335 54.738777,283.322021 56.099907,283.925385 
	C61.145645,286.162018 64.107651,284.164429 66.972328,280.194763 
	C72.477272,272.566467 78.218483,265.105957 83.999168,257.682892 
	C84.703728,256.778168 86.253494,256.531647 87.792900,255.962296 
z"/>
<path fill="#040002" opacity="1.000000" stroke="none" 
	d="
M258.327637,258.729675 
	C257.021149,263.231720 254.500793,266.126648 250.165405,266.920349 
	C245.605087,267.755249 241.149078,263.942108 240.728043,258.865112 
	C240.508987,256.223846 240.656158,253.552170 240.552612,250.440491 
	C240.974823,245.195282 244.261810,242.844589 248.432312,242.123779 
	C252.483246,241.423645 256.490234,245.093277 258.004913,249.982758 
	C258.336884,251.054352 258.603149,252.146301 258.887817,253.942413 
	C258.941925,255.106003 259.007904,255.556076 259.073853,256.006165 
	C258.835175,256.778137 258.596497,257.550140 258.327637,258.729675 
z"/>
<path fill="#E2DCE3" opacity="1.000000" stroke="none" 
	d="
M259.372040,255.999237 
	C259.007904,255.556076 258.941925,255.106003 258.972412,254.325378 
	C259.790039,254.446884 260.511230,254.898941 261.232452,255.350983 
	C260.711700,255.564743 260.190948,255.778519 259.372040,255.999237 
z"/>
<path fill="#D02B60" opacity="1.000000" stroke="none" 
	d="
M97.122910,265.265930 
	C97.368752,265.087250 97.612007,265.229034 97.788727,265.728607 
	C97.551193,265.842621 97.350563,265.675964 97.122910,265.265930 
z"/>
<path fill="#D9385C" opacity="1.000000" stroke="none" 
	d="
M112.982994,231.009064 
	C117.368065,236.629883 117.794960,242.120834 114.257645,247.404388 
	C110.742226,252.655228 105.129547,254.635300 98.115700,252.596283 
	C97.398552,252.116318 97.151398,252.056931 96.882217,252.088928 
	C96.882217,252.088928 96.958221,252.039261 96.833656,251.837219 
	C96.387962,251.491364 96.066833,251.347534 95.745705,251.203705 
	C95.745705,251.203705 95.811195,251.271530 95.853134,250.956100 
	C95.925522,250.426376 95.955963,250.212082 96.299515,249.858948 
	C101.736420,243.492538 106.860207,237.264954 112.233765,231.031250 
	C112.483543,231.025131 112.982994,231.009064 112.982994,231.009064 
z"/>
<path fill="#BE2C6E" opacity="1.000000" stroke="none" 
	d="
M112.858452,230.686096 
	C112.982994,231.009064 112.483543,231.025131 111.879280,230.974686 
	C109.173546,230.016434 107.072075,229.108627 104.912804,228.175858 
	C102.538727,231.134796 100.739273,234.502945 97.974976,236.598145 
	C91.389091,241.589874 90.982460,241.894104 93.042717,248.971313 
	C92.990311,249.014877 92.891518,249.108780 92.891518,249.108780 
	C88.044518,243.891891 87.842728,236.440887 92.394066,230.739990 
	C96.230240,225.934860 103.339638,224.666794 109.067993,227.837860 
	C110.360008,228.553085 111.515549,229.514847 112.858452,230.686096 
z"/>
<path fill="#E53B50" opacity="1.000000" stroke="none" 
	d="
M117.631668,278.392609 
	C113.705963,274.407349 109.715248,270.446045 106.247620,266.070221 
	C105.335052,264.918671 105.325211,262.020355 106.156715,260.739441 
	C107.737404,258.304413 109.744720,259.505493 111.410530,261.349670 
	C114.946518,265.264252 118.573868,269.096313 122.212463,273.359253 
	C122.261162,273.756287 121.985046,274.014984 121.689262,273.873047 
	C117.575661,273.012970 118.404152,275.985748 118.011513,277.988495 
	C118.011513,277.988495 117.762192,278.261627 117.631668,278.392609 
z"/>
<path fill="#D9385C" opacity="1.000000" stroke="none" 
	d="
M104.177025,272.585510 
	C103.610931,272.405334 102.945305,271.914581 102.194244,271.108398 
	C102.765038,271.286926 103.421265,271.780914 104.177025,272.585510 
z"/>
<path fill="#BE2C6E" opacity="1.000000" stroke="none" 
	d="
M95.986404,249.997803 
	C95.955963,250.212082 95.925522,250.426376 95.806030,250.954071 
	C95.240906,251.006317 94.764824,250.745193 94.156776,250.222672 
	C94.024818,249.961288 94.076942,249.887482 94.394485,249.917694 
	C95.136818,249.964539 95.561615,249.981171 95.986404,249.997803 
z"/>
<path fill="#E53B50" opacity="1.000000" stroke="none" 
	d="
M122.409164,273.638428 
	C122.861343,273.669830 123.078835,273.900726 123.269981,274.448547 
	C123.330322,274.683807 123.142479,274.856934 122.851471,274.810120 
	C122.313843,274.556030 122.122032,274.306610 121.985046,274.014984 
	C121.985046,274.014984 122.261162,273.756287 122.409164,273.638428 
z"/>
<path fill="#BE2C6E" opacity="1.000000" stroke="none" 
	d="
M95.844322,251.470474 
	C96.066833,251.347534 96.387962,251.491364 96.824913,251.881775 
	C96.608131,251.997986 96.275536,251.867615 95.844322,251.470474 
z"/>
<path fill="#BE2C6E" opacity="1.000000" stroke="none" 
	d="
M97.010162,252.233337 
	C97.151398,252.056931 97.398552,252.116318 97.754364,252.406342 
	C97.628197,252.524673 97.379219,252.468719 97.010162,252.233337 
z"/>
<path fill="#BE2C6E" opacity="1.000000" stroke="none" 
	d="
M93.997086,249.996948 
	C93.671944,249.885361 93.374542,249.738113 92.984329,249.349823 
	C92.891518,249.108780 92.990311,249.014877 93.237549,249.097076 
	C93.730110,249.375275 93.927490,249.611343 94.076942,249.887482 
	C94.076942,249.887482 94.024818,249.961288 93.997086,249.996948 
z"/>
<path fill="#BE2C6E" opacity="1.000000" stroke="none" 
	d="
M131.203888,221.274994 
	C131.576126,221.229645 131.653290,221.469513 131.379471,221.858597 
	C131.260681,221.945572 131.141022,221.497971 131.203888,221.274994 
z"/>
<path fill="#EE5A44" opacity="1.000000" stroke="none" 
	d="
M121.689262,273.873047 
	C122.122032,274.306610 122.313843,274.556030 122.756996,274.896088 
	C121.549683,276.022003 120.145836,277.015167 118.376755,277.998413 
	C118.404152,275.985748 117.575661,273.012970 121.689262,273.873047 
z"/>
<path fill="#D02B60" opacity="1.000000" stroke="none" 
	d="
M94.394485,249.917694 
	C93.927490,249.611343 93.730110,249.375275 93.289963,249.053528 
	C90.982460,241.894104 91.389091,241.589874 97.974976,236.598145 
	C100.739273,234.502945 102.538727,231.134796 104.912804,228.175858 
	C107.072075,229.108627 109.173546,230.016434 111.629501,230.980804 
	C106.860207,237.264954 101.736420,243.492538 96.299515,249.858948 
	C95.561615,249.981171 95.136818,249.964539 94.394485,249.917694 
z"/>
</svg>